<svg version="1.1" xmlns="http://www.w3.org/2000/svg" viewBox="0 0 500 100">
<style type="text/css">
	.st0{fill:#BAD7D4;}
	.st1{fill:#52656B;}
	.st2{fill:#F14B6A;}
	.st3{fill:#FFFFFF;}
</style>
<g>
	<g>
		<path class="st0" d="M449.2,77.5h-56.1c-2.3,0-4.1-1.8-4.1-4.1l0-16.5c0-2.3,1.8-4.1,4.1-4.1l56.1,0c2.3,0,4.1,1.8,4.1,4.1l0,16.5
			C453.3,75.7,451.5,77.5,449.2,77.5z"/>
	</g>
	<g>
		<path class="st1" d="M75.6,84.1l3.8-25H87v35.2h-5.2V69L78,94.3h-5.2l-4.1-24.9v24.9h-4.8V59.1h7.7L75.6,84.1z"/>
		<path class="st1" d="M91.1,59.1h5.5v35.2h-5.5V59.1z"/>
		<path class="st1" d="M116.7,81.2v4.7c0,5.6-2.8,8.9-8.2,8.9s-8.2-3.2-8.2-8.9V67.5c0-5.6,2.8-8.9,8.2-8.9s8.2,3.2,8.2,8.9V71h-5.2
			v-3.8c0-2.5-1.1-3.5-2.9-3.5s-2.9,1-2.9,3.5v19c0,2.5,1.1,3.4,2.9,3.4s2.9-0.9,2.9-3.4v-5H116.7z"/>
		<path class="st1" d="M125.6,94.3H120V59.1h5.5v15.1h6.3V59.1h5.6v35.2h-5.6V79.2h-6.3V94.3z"/>
		<path class="st1" d="M159.4,94.3h-5.6l-1-6.4h-6.8l-1,6.4H140l5.6-35.2h8.1L159.4,94.3z M146.8,83.1h5.3l-2.7-17.8L146.8,83.1z"/>
		<path class="st1" d="M167.5,73.9h7.6v5h-7.6v10.3h9.6v5H162V59.1h15.1v5h-9.6V73.9z"/>
		<path class="st1" d="M180.5,59.1h5.5v30.2h9.1v5h-14.6V59.1z"/>
	</g>
	<g>
		<path class="st1" d="M227.4,89.4c-1.5,0.4-3,0.6-4.3,0.6c-1.5,0-2.8-0.2-4.1-0.7c-1.3-0.4-2.3-1.1-3.2-1.9
			c-0.9-0.8-1.6-1.9-2.1-3.1c-0.5-1.2-0.8-2.6-0.8-4.2c0-2.6,0.4-4.9,1.2-6.8c0.8-2,1.9-3.6,3.3-5s3-2.4,4.9-3.1
			c1.8-0.7,3.8-1,5.8-1c1.4,0,2.8,0.2,3.9,0.6c1.2,0.4,2.2,1,3.1,1.8c0.9,0.8,1.5,1.8,2,3c0.5,1.2,0.7,2.6,0.7,4.3
			c0,1.8-0.2,3.3-0.7,4.5c-0.5,1.2-1.1,2.3-1.8,3.1c-0.7,0.8-1.6,1.4-2.4,1.7c-0.9,0.4-1.7,0.5-2.5,0.5c-0.6,0-1.1-0.1-1.5-0.3
			c-0.4-0.2-0.7-0.5-0.9-0.8c-0.5,0.3-1,0.6-1.7,0.8c-0.7,0.2-1.3,0.3-2,0.3c-0.7,0-1.4-0.1-2-0.3s-1.1-0.5-1.5-0.9
			c-0.4-0.4-0.8-0.9-1-1.5c-0.3-0.6-0.4-1.3-0.4-2.1c0-1.3,0.2-2.4,0.6-3.5c0.4-1.1,1-2,1.7-2.7c0.7-0.8,1.6-1.4,2.6-1.8
			c1-0.4,2.1-0.6,3.4-0.6c1,0,1.8,0.1,2.6,0.2c0.8,0.2,1.3,0.3,1.6,0.5l-2.3,9.1c0,0.2-0.1,0.3-0.1,0.5c-0.1,0.2-0.1,0.4-0.1,0.5
			c0,0.2,0.1,0.4,0.2,0.6c0.1,0.2,0.5,0.3,1.1,0.3c1,0,1.8-0.3,2.5-0.8c0.7-0.5,1.2-1.2,1.7-2.1c0.4-0.8,0.7-1.7,0.9-2.7
			c0.2-1,0.3-1.9,0.3-2.8c0-1.3-0.2-2.4-0.6-3.4c-0.4-1-0.9-1.8-1.6-2.4s-1.6-1.1-2.6-1.4s-2.1-0.5-3.4-0.5c-1.6,0-3.2,0.3-4.8,0.9
			c-1.5,0.6-2.9,1.5-4.1,2.7c-1.2,1.2-2.2,2.6-2.9,4.4c-0.7,1.7-1.1,3.7-1.1,6c0,2.7,0.7,4.8,2.2,6.3c1.5,1.5,3.5,2.2,6.2,2.2
			c1.3,0,2.7-0.2,4.2-0.5L227.4,89.4z M229.6,72.2c0,0-0.1,0-0.2-0.1c-0.1,0-0.3-0.1-0.5-0.1c-0.2,0-0.4,0-0.7-0.1
			c-0.3,0-0.5,0-0.7,0c-0.9,0-1.7,0.2-2.4,0.5c-0.7,0.3-1.4,0.8-1.9,1.4c-0.5,0.6-0.9,1.3-1.2,2.2s-0.5,1.8-0.5,2.7
			c0,1.2,0.3,2,0.8,2.6c0.5,0.5,1.2,0.8,2.1,0.8c0.9,0,1.6-0.1,2-0.3c0.5-0.2,0.9-0.4,1.2-0.5c0-0.4,0-0.8,0.1-1
			c0-0.3,0.1-0.5,0.1-0.7L229.6,72.2z"/>
	</g>
	<g>
		<path class="st2" d="M296.9,61.3c-0.5-0.1-1.3-0.6-1.7-0.4c-0.5,0.4-1,1-1.4,1.7c-0.5,1.1-0.9,2.3-1.3,3.4c-0.2,0.4-0.5,0.7-0.7,1
			c-0.4,0.8-0.8,1.7-1,2.6c-0.9,2.8-1.8,12.8-2.9,15c-0.9,1.4-4.1,9-4.6,9.3c-1,0.5-1.9,1.3-3.1,0.6c-0.7-0.4-1.3-0.8-1.7-1.4
			c-0.8-1-1.4-2-2-3.1c-0.7-1.4-0.8-3-0.8-4.4c-0.2-3.3-0.2-6.6-0.2-9.9v-1l-0.2-0.1l-1.7,2.6c-0.8,1.2-1.5,2.5-2.2,3.7
			c-1.5,2.6-3,5.2-4.4,7.8c-0.2,0.4-0.2,0.9-0.2,1.3c0.1,1.2-0.2,2.1-1.2,2.8c-1.3,0.8-3.5,1.2-5.1-0.8c-0.6-0.8-1-1.4-0.9-2.5
			c0.1-0.6-0.1-1.3-0.1-1.9c-0.3-3.9-0.4-7.7,0.1-11.6c0.4-3.9,0.7-7.8,1-11.8v-0.7c-0.1-0.8-0.4-1.1-1.1-0.8
			c-0.4,0.1-0.9,0.2-1.3,0.4c-0.6,0.2-1.1,0.1-1.6-0.6c0.1-1.7,1.6-2.2,2.9-2.8c1.7-0.8,3.7-0.5,5.4,0.4c0.8,0.4,1.5,1.3,1.9,2.1
			c1,1.9,1.2,3.9,1,5.9l-0.4,4.5c-0.2,2.4-0.4,4.8-0.5,7.1c-0.1,1.1-0.2,2.4,0.2,3.8c0.4-0.5,0.8-0.8,1-1.2c1.4-2.5,2.8-4.9,4.1-7.4
			c1.1-2.2,2.4-4.3,3.9-6.1c1.1-1.4,2.5-1.9,4.2-1.9c1.1,0,2.5,1.2,2.7,2.4c0.1,1.2,0,2.4,0,3.6c-0.1,2.5-0.1,5-0.3,7.5
			c-0.1,1.2-0.2,2.5-0.1,3.7c0.1,2,0.1,4,0.3,6c0.7-0.6,1.3-1.3,1.6-2.2l1.1-3.8l2-7c0.2-0.8,0.4-1.7,0.6-2.5c0.5-2,1.1-4,1.6-6
			c0.4-1.3,0.6-2.6,1-3.8c0.4-1.5,1-3,1.5-4.5c0.1-0.3,0.2-0.7,0.5-0.8c1.1-0.5,2.2-1.1,3.4-1.5c0.9-0.2,1.8,0.2,2.1,0.9
			c0.3,0.6,0.1,2-0.4,2.4C297.6,61.4,297.2,61.4,296.9,61.3z"/>
		<path class="st2" d="M308.6,79.7c-0.9,0.5-0.7,1.3-0.7,2.4c0.1,3.1-1.6,5.3-3.7,7.2c-0.8,0.7-2.2,0.8-3.3,1.1
			c-1.4,0.5-2.7,0.7-4.2,0.1c-1.1-0.4-1.9-1.1-2.8-1.9c-1.1-0.8-1.6-2.2-1.9-3.4c-0.2-1.2,0.1-3.5,1-7.4c0.5-2,1.7-3.6,3.1-4.8
			c1.4-1.1,3-2,4.8-2.3c2-0.4,3.5,0.9,3,3c-0.4,1.4-0.7,2.8-1.6,4c-1.4,2-2,4.3-2.1,6.8c-0.1,0.5,0,1.1,0.2,1.6
			c0.1,0.3,0.5,0.7,0.8,0.8c1.3,0.5,2.7-0.1,3.4-1.3c0.7-1.1,0.8-2.4,0.7-3.7c-0.1-0.8-0.4-1.6-1.1-2c-0.2-0.2-0.4-0.5-0.7-1
			c0.6-0.1,1-0.1,1.4-0.2c3.3-1.2,8.1-4.3,9.2-4C314.4,75.7,311.8,77.7,308.6,79.7z"/>
		<path class="st2" d="M324.6,90.8c-1.1,0.5-2.5,0.7-3.7,1c-0.5,0.1-1,0.1-1.4-0.1c-2.8-0.9-3.9-3.1-4-5.9c-0.1-2.2,0.2-2.8,0.8-4.9
			l0.5-1.9c0.7-2-0.4-3.4-1.7-3.9c-1.8-0.6-3-1.2-3.3-3c-0.1-1.1,0.2-1.9,1.2-2.4c0.4-0.2,0.8-0.6,1.2-0.8c1.8-1,3.4-0.2,3.7,1.7
			c0.1,0.5-0.7,2.9-0.4,3.1c0.4,0.4,8,2.7,7.4,5.1c-0.7,2.5-0.5,3.3-1,5.8c-0.1,0.7-0.1,3-0.1,3.7c1.1,0.1,1.7-0.7,2.4-1.2
			c1.6-1.4,3-3.3,4.2-5.1c1.6-2.5,4.9-6.9,5.7-7.3c0.8-0.4-0.6,3.6-2.8,7.2C330.9,85.6,327.8,89.5,324.6,90.8z"/>
		<path class="st2" d="M355.4,89.7c-2.8,1.1-6.1,0.2-7.3-2.7c-0.7-1.7-1.5-3.3-2.2-4.9c-0.4-0.7-0.9-1.1-1.7-1.2
			c-0.8-0.1-0.9,0.6-1.2,1.1c-0.2,0.4-0.4,0.8-0.7,1c-1,0.6-1.3,1.5-1.6,2.6c-0.4,1.8-1.7,2.7-3.6,2.5c-1.3-0.1-2.4-0.7-3.3-1.7
			c-0.8-0.8-0.8-2-0.6-3.1c0.2-1.6,0.5-3.2,0.8-4.8c0.5-2.1,0.5-3,1.1-4.9c0.8-2.9,1.4-6,2.4-8.9c0.7-2.2,1.4-4.5,2.7-6.4
			c1.6-2.7,4.9-4.5,8.1-3.8c2.4,0.6,3.6,2.3,4.2,3.9c1,2.4,1.7,5.3,0.1,7.2c-1.6,1.8-3.4,3.2-5.2,4.6c-1,0.8-1.9,1.7-2.8,2.7
			c-0.4,0.4-0.7,0.9-0.9,1.4c-0.4,1.4-0.7,2.8-1.1,4.3c1,0.1,1.4-0.5,1.8-1c2-1.9,3.9-3.8,5.8-5.5c0.8-0.7,1.8-1.2,2.8-1.6
			c1.6-0.5,2.9,0.5,3.1,1.9c0.1,1.4-1,2.9-2.2,3.9c-1.3,1-2.7,2-2.6,2c2.2,1.3,1.7,4.5,2.7,6.6c0.6,1.4,1.9,2,2.8,1.7
			c1.4-0.4,1.9-2.4,3.3-2.4C360.9,84.5,358.1,88.5,355.4,89.7z M344.4,70.1c2.2-2.4,4.6-4.1,5.7-6.3c0.7-1.6,1.1-3.4-0.6-4.6
			c-0.1-0.1-1.2-0.8-1.7-1c-1.9-0.4-3.2,9.6-3.6,11.1C344.1,69.5,344.3,69.8,344.4,70.1z M353,71.5c-2.4,2.2-3.9,3.6-6.7,6.1
			C349.4,77.7,355.4,72.4,353,71.5z"/>
	</g>
	<g>
		<path class="st0" d="M376.6,59.2c0,0.4-0.1,0.8-0.4,1.1c-0.3,0.3-0.6,0.4-1.1,0.4c-0.5,0-0.8-0.1-1.1-0.4
			c-0.3-0.3-0.4-0.6-0.4-1.1c0-0.4,0.1-0.8,0.4-1.1c0.3-0.3,0.6-0.4,1.1-0.4c0.5,0,0.8,0.1,1.1,0.4S376.6,58.8,376.6,59.2z
			 M376.6,70.5c0,0.4-0.1,0.8-0.4,1.1s-0.6,0.4-1.1,0.4c-0.5,0-0.8-0.1-1.1-0.4c-0.3-0.3-0.4-0.6-0.4-1.1c0-0.4,0.1-0.8,0.4-1.1
			c0.3-0.3,0.6-0.4,1.1-0.4c0.5,0,0.8,0.1,1.1,0.4S376.6,70.1,376.6,70.5z"/>
		<path class="st0" d="M383.2,59.2c0,0.4-0.1,0.8-0.4,1.1c-0.3,0.3-0.6,0.4-1.1,0.4c-0.5,0-0.8-0.1-1.1-0.4
			c-0.3-0.3-0.4-0.6-0.4-1.1c0-0.4,0.1-0.8,0.4-1.1c0.3-0.3,0.6-0.4,1.1-0.4c0.5,0,0.8,0.1,1.1,0.4S383.2,58.8,383.2,59.2z
			 M383.2,70.5c0,0.4-0.1,0.8-0.4,1.1s-0.6,0.4-1.1,0.4c-0.5,0-0.8-0.1-1.1-0.4c-0.3-0.3-0.4-0.6-0.4-1.1c0-0.4,0.1-0.8,0.4-1.1
			c0.3-0.3,0.6-0.4,1.1-0.4c0.5,0,0.8,0.1,1.1,0.4S383.2,70.1,383.2,70.5z"/>
	</g>
	<g>
		<path class="st3" d="M398.6,69.6c0.9,0,1.6-0.2,2-0.5s0.6-0.7,0.6-1.3c0-0.3-0.1-0.6-0.2-0.9s-0.3-0.5-0.6-0.6
			c-0.3-0.2-0.6-0.4-1-0.5c-0.4-0.2-0.8-0.3-1.3-0.5c-0.5-0.2-0.9-0.4-1.4-0.6c-0.4-0.2-0.8-0.5-1.2-0.8c-0.3-0.3-0.6-0.7-0.8-1.1
			c-0.2-0.4-0.3-0.9-0.3-1.5c0-1.3,0.4-2.2,1.3-2.9c0.9-0.7,2-1.1,3.5-1.1c0.9,0,1.6,0.1,2.3,0.3c0.7,0.2,1.2,0.4,1.6,0.6l-0.8,2
			c-0.5-0.3-0.9-0.4-1.5-0.6s-1.1-0.2-1.7-0.2c-0.7,0-1.2,0.1-1.6,0.4c-0.4,0.3-0.6,0.7-0.6,1.2c0,0.3,0.1,0.6,0.2,0.8
			c0.1,0.2,0.3,0.4,0.5,0.6s0.5,0.3,0.8,0.5c0.3,0.1,0.7,0.3,1,0.4c0.7,0.2,1.2,0.5,1.8,0.7c0.5,0.2,0.9,0.5,1.3,0.9
			c0.4,0.3,0.6,0.7,0.8,1.2s0.3,1,0.3,1.7c0,1.3-0.4,2.2-1.3,2.9c-0.9,0.7-2.2,1-3.9,1c-0.6,0-1.1,0-1.6-0.1s-0.9-0.2-1.3-0.3
			c-0.4-0.1-0.7-0.2-1-0.3c-0.3-0.1-0.5-0.2-0.6-0.3l0.7-2.1c0.4,0.2,0.8,0.4,1.5,0.6C397,69.5,397.8,69.6,398.6,69.6z"/>
		<path class="st3" d="M415.4,66.3c0,0.8-0.1,1.5-0.3,2.2c-0.2,0.7-0.5,1.2-0.9,1.7s-0.9,0.9-1.4,1.1s-1.2,0.4-2,0.4
			c-0.5,0-0.9-0.1-1.4-0.2c-0.4-0.1-0.8-0.3-1-0.4v4.1H406V61.4c0.5-0.1,1.1-0.3,1.8-0.4s1.5-0.2,2.3-0.2c0.8,0,1.6,0.1,2.2,0.4
			s1.2,0.6,1.7,1.1c0.5,0.5,0.8,1,1.1,1.7C415.2,64.7,415.4,65.4,415.4,66.3z M412.9,66.3c0-1.1-0.2-1.9-0.7-2.5
			c-0.5-0.6-1.3-0.9-2.3-0.9c-0.2,0-0.5,0-0.7,0c-0.2,0-0.5,0.1-0.7,0.1v6c0.2,0.1,0.5,0.3,0.9,0.4c0.4,0.1,0.7,0.2,1.1,0.2
			c0.9,0,1.5-0.3,1.9-0.9C412.7,68.1,412.9,67.3,412.9,66.3z"/>
		<path class="st3" d="M421.4,60.8c0.8,0,1.5,0.1,2,0.3c0.5,0.2,1,0.5,1.3,0.8c0.3,0.4,0.6,0.8,0.7,1.3c0.1,0.5,0.2,1.1,0.2,1.7v6.3
			c-0.4,0.1-0.9,0.2-1.7,0.3c-0.8,0.1-1.6,0.2-2.5,0.2c-0.6,0-1.2-0.1-1.7-0.2c-0.5-0.1-1-0.3-1.3-0.6c-0.4-0.3-0.7-0.6-0.9-1
			c-0.2-0.4-0.3-1-0.3-1.6c0-0.6,0.1-1.1,0.4-1.5c0.2-0.4,0.5-0.8,1-1c0.4-0.3,0.9-0.4,1.4-0.6c0.5-0.1,1.1-0.2,1.7-0.2
			c0.3,0,0.5,0,0.8,0c0.3,0,0.6,0.1,0.9,0.2v-0.4c0-0.3,0-0.5-0.1-0.8c-0.1-0.3-0.2-0.5-0.3-0.7c-0.2-0.2-0.4-0.3-0.7-0.5
			c-0.3-0.1-0.6-0.2-1-0.2c-0.6,0-1.1,0-1.5,0.1s-0.8,0.2-1.1,0.3l-0.3-2c0.3-0.1,0.8-0.2,1.3-0.3C420.1,60.8,420.7,60.8,421.4,60.8
			z M421.6,69.8c0.7,0,1.3,0,1.7-0.1V67c-0.1,0-0.3-0.1-0.6-0.1c-0.3,0-0.5-0.1-0.8-0.1c-0.3,0-0.5,0-0.8,0.1
			c-0.3,0-0.5,0.1-0.7,0.2c-0.2,0.1-0.4,0.3-0.5,0.4c-0.1,0.2-0.2,0.4-0.2,0.7c0,0.6,0.2,1,0.5,1.2
			C420.5,69.7,420.9,69.8,421.6,69.8z"/>
		<path class="st3" d="M428,66.3c0-0.8,0.1-1.5,0.4-2.2c0.2-0.7,0.6-1.3,1-1.8c0.4-0.5,1-0.9,1.6-1.2c0.6-0.3,1.4-0.4,2.2-0.4
			c1,0,1.9,0.2,2.8,0.5l-0.5,2c-0.3-0.1-0.6-0.2-1-0.3s-0.7-0.1-1.1-0.1c-0.9,0-1.7,0.3-2.2,0.9s-0.7,1.4-0.7,2.5
			c0,1,0.2,1.9,0.7,2.5c0.5,0.6,1.3,0.9,2.4,0.9c0.4,0,0.8,0,1.2-0.1s0.7-0.2,1-0.3l0.3,2c-0.3,0.1-0.7,0.3-1.2,0.4
			s-1.1,0.2-1.7,0.2c-0.9,0-1.7-0.1-2.3-0.4c-0.7-0.3-1.2-0.7-1.6-1.1c-0.4-0.5-0.8-1.1-1-1.7C428.1,67.8,428,67,428,66.3z"/>
		<path class="st3" d="M437.4,66.3c0-0.9,0.1-1.7,0.4-2.4c0.3-0.7,0.6-1.3,1.1-1.7c0.5-0.5,1-0.8,1.6-1c0.6-0.2,1.2-0.4,1.8-0.4
			c1.4,0,2.6,0.4,3.4,1.3c0.8,0.9,1.2,2.2,1.2,4c0,0.1,0,0.3,0,0.4c0,0.2,0,0.3,0,0.5h-6.9c0.1,0.8,0.4,1.5,0.9,2
			c0.5,0.5,1.3,0.7,2.3,0.7c0.6,0,1.1-0.1,1.6-0.2c0.5-0.1,0.9-0.2,1.1-0.3l0.3,2c-0.1,0.1-0.3,0.1-0.5,0.2s-0.5,0.1-0.8,0.2
			c-0.3,0.1-0.6,0.1-1,0.2s-0.7,0.1-1.1,0.1c-0.9,0-1.7-0.1-2.4-0.4c-0.7-0.3-1.2-0.7-1.7-1.1c-0.4-0.5-0.8-1.1-1-1.7
			C437.5,67.8,437.4,67.1,437.4,66.3z M444.4,65.2c0-0.3,0-0.7-0.1-1c-0.1-0.3-0.2-0.6-0.4-0.8c-0.2-0.2-0.4-0.4-0.7-0.5
			c-0.3-0.1-0.6-0.2-0.9-0.2c-0.4,0-0.7,0.1-1,0.2c-0.3,0.1-0.5,0.3-0.7,0.6c-0.2,0.2-0.3,0.5-0.4,0.8c-0.1,0.3-0.2,0.6-0.2,0.9
			H444.4z"/>
	</g>
</g>
</svg>
